<?xml version="1.0" standalone="no"?><!DOCTYPE svg PUBLIC "-//W3C//DTD SVG 1.1//EN" "http://www.w3.org/Graphics/SVG/1.1/DTD/svg11.dtd"><svg t="1589159010262" class="icon" viewBox="0 0 1024 1024" version="1.1" xmlns="http://www.w3.org/2000/svg" p-id="2674" xmlns:xlink="http://www.w3.org/1999/xlink" width="200" height="200"><defs><style type="text/css"></style></defs><path d="M384 170.666667m42.666667 0l512 0q42.666667 0 42.666666 42.666666l0 0q0 42.666667-42.666666 42.666667l-512 0q-42.666667 0-42.666667-42.666667l0 0q0-42.666667 42.666667-42.666666Z" p-id="2675" fill="#bfbfbf"></path><path d="M384 469.333333m42.666667 0l512 0q42.666667 0 42.666666 42.666667l0 0q0 42.666667-42.666666 42.666667l-512 0q-42.666667 0-42.666667-42.666667l0 0q0-42.666667 42.666667-42.666667Z" p-id="2676" fill="#bfbfbf"></path><path d="M384 768m42.666667 0l512 0q42.666667 0 42.666666 42.666667l0 0q0 42.666667-42.666666 42.666666l-512 0q-42.666667 0-42.666667-42.666666l0 0q0-42.666667 42.666667-42.666667Z" p-id="2677" fill="#bfbfbf"></path><path d="M239.835143 127.973411m15.084945 15.084944l60.339779 60.339779q15.084945 15.084945 0 30.169889l-60.339779 60.339779q-15.084945 15.084945-30.169889 0l-60.339779-60.339779q-15.084945-15.084945 0-30.169889l60.339779-60.339779q15.084945-15.084945 30.169889 0Z" p-id="2678" fill="#bfbfbf"></path><path d="M239.831988 426.647696m15.084944 15.084945l60.339779 60.339778q15.084945 15.084945 0 30.16989l-60.339779 60.339778q-15.084945 15.084945-30.169889 0l-60.339779-60.339778q-15.084945-15.084945 0-30.16989l60.339779-60.339778q15.084945-15.084945 30.169889 0Z" p-id="2679" fill="#bfbfbf"></path><path d="M239.828832 725.321982m15.084944 15.084944l60.339779 60.339779q15.084945 15.084945 0 30.169889l-60.339779 60.339779q-15.084945 15.084945-30.169889 0l-60.339779-60.339779q-15.084945-15.084945 0-30.169889l60.339779-60.339779q15.084945-15.084945 30.169889 0Z" p-id="2680" fill="#bfbfbf"></path><path d="M213.333333 853.333333H85.333333a42.666667 42.666667 0 0 1-42.666666-42.666666V213.333333a42.666667 42.666667 0 0 1 42.666666-42.666666h128v85.333333H138.666667a10.709333 10.709333 0 0 0-10.666667 10.666667v192a10.709333 10.709333 0 0 0 10.666667 10.666666H213.333333v85.333334H138.666667a10.709333 10.709333 0 0 0-10.666667 10.666666v192a10.709333 10.709333 0 0 0 10.666667 10.666667H213.333333v85.333333z" p-id="2681" fill="#bfbfbf"></path></svg>